<mxfile host="app.diagrams.net" modified="2022-05-25T08:36:38.866Z" agent="5.0 (Windows)" etag="LCffmUXl4rug2QHdKARX" version="15.7.4" type="github" pages="4">
  <diagram id="q81Tqc-Qohcfp0MkGZEg" name="local-dr-rpo=0">
    <mxGraphModel dx="871" dy="448" grid="1" gridSize="10" guides="1" tooltips="1" connect="1" arrows="1" fold="1" page="1" pageScale="1" pageWidth="1169" pageHeight="827" math="0" shadow="0">
      <root>
        <mxCell id="VpI5HfqAKOcKjX_dPZPz-0" />
        <mxCell id="VpI5HfqAKOcKjX_dPZPz-1" parent="VpI5HfqAKOcKjX_dPZPz-0" />
        <mxCell id="HIZQCUx6aUcxExQgt6VD-1" value="&lt;font style=&quot;font-size: 16px&quot; color=&quot;#FFFFFF&quot;&gt;&lt;span style=&quot;background-color: rgb(255 , 0 , 0)&quot;&gt;&amp;nbsp; ( vPLEX Metro )&amp;nbsp;&amp;nbsp; &lt;br&gt;&lt;/span&gt;&lt;/font&gt;" style="rounded=1;whiteSpace=wrap;html=1;" parent="VpI5HfqAKOcKjX_dPZPz-1" vertex="1">
          <mxGeometry x="300" y="460" width="520" height="110" as="geometry" />
        </mxCell>
        <mxCell id="HIZQCUx6aUcxExQgt6VD-0" value="&lt;font style=&quot;font-size: 12px&quot;&gt;EMC vPLEX&lt;/font&gt;" style="shadow=0;dashed=0;html=1;labelPosition=center;verticalLabelPosition=bottom;verticalAlign=top;align=center;outlineConnect=0;shape=mxgraph.veeam.3d.switch;fontSize=15;" parent="VpI5HfqAKOcKjX_dPZPz-1" vertex="1">
          <mxGeometry x="340" y="475" width="70" height="50" as="geometry" />
        </mxCell>
        <mxCell id="HIZQCUx6aUcxExQgt6VD-6" value="&lt;font style=&quot;font-size: 16px&quot;&gt;&lt;span style=&quot;background-color: rgb(0 , 0 , 0)&quot;&gt;&lt;font style=&quot;font-size: 16px&quot; color=&quot;#FFFFFF&quot;&gt;&amp;nbsp; ( SAN Storage Pool )&amp;nbsp; &lt;/font&gt;&lt;/span&gt;&lt;/font&gt;" style="rounded=1;whiteSpace=wrap;html=1;" parent="VpI5HfqAKOcKjX_dPZPz-1" vertex="1">
          <mxGeometry x="300" y="570" width="520" height="110" as="geometry" />
        </mxCell>
        <mxCell id="HIZQCUx6aUcxExQgt6VD-11" value="EMC Unity Storage" style="sketch=0;shadow=0;dashed=0;html=1;labelPosition=center;verticalLabelPosition=bottom;verticalAlign=top;align=center;outlineConnect=0;shape=mxgraph.veeam.3d.physical_storage;" parent="VpI5HfqAKOcKjX_dPZPz-1" vertex="1">
          <mxGeometry x="340" y="590" width="70" height="50" as="geometry" />
        </mxCell>
        <mxCell id="HIZQCUx6aUcxExQgt6VD-12" value="" style="sketch=0;shadow=0;dashed=0;html=1;labelPosition=center;verticalLabelPosition=bottom;verticalAlign=top;align=center;outlineConnect=0;shape=mxgraph.veeam.3d.physical_storage;" parent="VpI5HfqAKOcKjX_dPZPz-1" vertex="1">
          <mxGeometry x="383" y="609" width="70" height="50" as="geometry" />
        </mxCell>
        <mxCell id="HIZQCUx6aUcxExQgt6VD-13" value="" style="shadow=0;dashed=0;html=1;labelPosition=center;verticalLabelPosition=bottom;verticalAlign=top;align=center;outlineConnect=0;shape=mxgraph.veeam.3d.switch;fontSize=15;" parent="VpI5HfqAKOcKjX_dPZPz-1" vertex="1">
          <mxGeometry x="383" y="495" width="70" height="50" as="geometry" />
        </mxCell>
        <mxCell id="HIZQCUx6aUcxExQgt6VD-14" value="&lt;font style=&quot;font-size: 12px&quot;&gt;EMC vPLEX&lt;/font&gt;" style="shadow=0;dashed=0;html=1;labelPosition=center;verticalLabelPosition=bottom;verticalAlign=top;align=center;outlineConnect=0;shape=mxgraph.veeam.3d.switch;fontSize=15;" parent="VpI5HfqAKOcKjX_dPZPz-1" vertex="1">
          <mxGeometry x="680" y="475" width="70" height="50" as="geometry" />
        </mxCell>
        <mxCell id="HIZQCUx6aUcxExQgt6VD-15" value="" style="shadow=0;dashed=0;html=1;labelPosition=center;verticalLabelPosition=bottom;verticalAlign=top;align=center;outlineConnect=0;shape=mxgraph.veeam.3d.switch;fontSize=15;" parent="VpI5HfqAKOcKjX_dPZPz-1" vertex="1">
          <mxGeometry x="723" y="495" width="70" height="50" as="geometry" />
        </mxCell>
        <mxCell id="HIZQCUx6aUcxExQgt6VD-18" value="" style="rounded=1;whiteSpace=wrap;html=1;" parent="VpI5HfqAKOcKjX_dPZPz-1" vertex="1">
          <mxGeometry x="300" y="240" width="520" height="110" as="geometry" />
        </mxCell>
        <mxCell id="HIZQCUx6aUcxExQgt6VD-19" value="" style="sketch=0;shadow=0;dashed=0;html=1;labelPosition=center;verticalLabelPosition=bottom;verticalAlign=top;align=center;outlineConnect=0;shape=mxgraph.veeam.3d.vmware_host;labelBackgroundColor=#000000;fontSize=16;fontColor=#FFFFFF;" parent="VpI5HfqAKOcKjX_dPZPz-1" vertex="1">
          <mxGeometry x="300" y="253" width="83" height="84" as="geometry" />
        </mxCell>
        <mxCell id="HIZQCUx6aUcxExQgt6VD-20" value="" style="sketch=0;shadow=0;dashed=0;html=1;labelPosition=center;verticalLabelPosition=bottom;verticalAlign=top;align=center;outlineConnect=0;shape=mxgraph.veeam.3d.vmware_host;labelBackgroundColor=#000000;fontSize=16;fontColor=#FFFFFF;" parent="VpI5HfqAKOcKjX_dPZPz-1" vertex="1">
          <mxGeometry x="383" y="253" width="83" height="84" as="geometry" />
        </mxCell>
        <mxCell id="HIZQCUx6aUcxExQgt6VD-21" value="" style="sketch=0;shadow=0;dashed=0;html=1;labelPosition=center;verticalLabelPosition=bottom;verticalAlign=top;align=center;outlineConnect=0;shape=mxgraph.veeam.3d.vmware_host;labelBackgroundColor=#000000;fontSize=16;fontColor=#FFFFFF;" parent="VpI5HfqAKOcKjX_dPZPz-1" vertex="1">
          <mxGeometry x="465" y="253" width="83" height="84" as="geometry" />
        </mxCell>
        <mxCell id="HIZQCUx6aUcxExQgt6VD-23" value="" style="sketch=0;shadow=0;dashed=0;html=1;labelPosition=center;verticalLabelPosition=bottom;verticalAlign=top;align=center;outlineConnect=0;shape=mxgraph.veeam.3d.vmware_host;labelBackgroundColor=#000000;fontSize=16;fontColor=#FFFFFF;" parent="VpI5HfqAKOcKjX_dPZPz-1" vertex="1">
          <mxGeometry x="572" y="253" width="83" height="84" as="geometry" />
        </mxCell>
        <mxCell id="HIZQCUx6aUcxExQgt6VD-24" value="" style="sketch=0;shadow=0;dashed=0;html=1;labelPosition=center;verticalLabelPosition=bottom;verticalAlign=top;align=center;outlineConnect=0;shape=mxgraph.veeam.3d.vmware_host;labelBackgroundColor=#000000;fontSize=16;fontColor=#FFFFFF;" parent="VpI5HfqAKOcKjX_dPZPz-1" vertex="1">
          <mxGeometry x="654" y="253" width="83" height="84" as="geometry" />
        </mxCell>
        <mxCell id="HIZQCUx6aUcxExQgt6VD-25" value="" style="rounded=1;whiteSpace=wrap;html=1;" parent="VpI5HfqAKOcKjX_dPZPz-1" vertex="1">
          <mxGeometry x="300" y="130" width="520" height="110" as="geometry" />
        </mxCell>
        <mxCell id="HIZQCUx6aUcxExQgt6VD-26" value="" style="sketch=0;pointerEvents=1;shadow=0;dashed=0;html=1;strokeColor=none;fillColor=#DF8C42;labelPosition=center;verticalLabelPosition=bottom;verticalAlign=top;align=center;outlineConnect=0;shape=mxgraph.veeam2.microsoft_sql;labelBackgroundColor=#000000;fontSize=16;fontColor=#FFFFFF;flipV=0;" parent="VpI5HfqAKOcKjX_dPZPz-1" vertex="1">
          <mxGeometry x="321" y="141" width="40" height="40" as="geometry" />
        </mxCell>
        <mxCell id="HIZQCUx6aUcxExQgt6VD-27" value="" style="sketch=0;pointerEvents=1;shadow=0;dashed=0;html=1;strokeColor=none;fillColor=#DF8C42;labelPosition=center;verticalLabelPosition=bottom;verticalAlign=top;align=center;outlineConnect=0;shape=mxgraph.veeam2.microsoft_outlook;labelBackgroundColor=#000000;fontSize=16;fontColor=#FFFFFF;flipV=0;" parent="VpI5HfqAKOcKjX_dPZPz-1" vertex="1">
          <mxGeometry x="381" y="141" width="40" height="40" as="geometry" />
        </mxCell>
        <mxCell id="HIZQCUx6aUcxExQgt6VD-29" value="" style="sketch=0;pointerEvents=1;shadow=0;dashed=0;html=1;strokeColor=none;fillColor=#DF8C42;labelPosition=center;verticalLabelPosition=bottom;verticalAlign=top;align=center;outlineConnect=0;shape=mxgraph.veeam2.application;labelBackgroundColor=#000000;fontSize=16;fontColor=#FFFFFF;flipV=0;" parent="VpI5HfqAKOcKjX_dPZPz-1" vertex="1">
          <mxGeometry x="441" y="141" width="40" height="40" as="geometry" />
        </mxCell>
        <mxCell id="HIZQCUx6aUcxExQgt6VD-30" value="" style="sketch=0;pointerEvents=1;shadow=0;dashed=0;html=1;strokeColor=none;fillColor=#DF8C42;labelPosition=center;verticalLabelPosition=bottom;verticalAlign=top;align=center;outlineConnect=0;shape=mxgraph.veeam2.microsoft_active_directory;labelBackgroundColor=#000000;fontSize=16;fontColor=#FFFFFF;flipV=0;" parent="VpI5HfqAKOcKjX_dPZPz-1" vertex="1">
          <mxGeometry x="500.5" y="141" width="40" height="40" as="geometry" />
        </mxCell>
        <mxCell id="HIZQCUx6aUcxExQgt6VD-31" value="" style="sketch=0;pointerEvents=1;shadow=0;dashed=0;html=1;strokeColor=none;fillColor=#DF8C42;labelPosition=center;verticalLabelPosition=bottom;verticalAlign=top;align=center;outlineConnect=0;shape=mxgraph.veeam2.microsoft_scom;labelBackgroundColor=#000000;fontSize=16;fontColor=#FFFFFF;flipV=0;" parent="VpI5HfqAKOcKjX_dPZPz-1" vertex="1">
          <mxGeometry x="321" y="191" width="40" height="40" as="geometry" />
        </mxCell>
        <mxCell id="HIZQCUx6aUcxExQgt6VD-32" value="" style="sketch=0;pointerEvents=1;shadow=0;dashed=0;html=1;strokeColor=none;fillColor=#DF8C42;labelPosition=center;verticalLabelPosition=bottom;verticalAlign=top;align=center;outlineConnect=0;shape=mxgraph.veeam2.microsoft_office;labelBackgroundColor=#000000;fontSize=16;fontColor=#FFFFFF;flipV=0;" parent="VpI5HfqAKOcKjX_dPZPz-1" vertex="1">
          <mxGeometry x="381" y="191" width="40" height="40" as="geometry" />
        </mxCell>
        <mxCell id="HIZQCUx6aUcxExQgt6VD-33" value="" style="sketch=0;pointerEvents=1;shadow=0;dashed=0;html=1;strokeColor=none;fillColor=#DF8C42;labelPosition=center;verticalLabelPosition=bottom;verticalAlign=top;align=center;outlineConnect=0;shape=mxgraph.veeam2.microsoft_onedrive;labelBackgroundColor=#000000;fontSize=16;fontColor=#FFFFFF;flipV=0;" parent="VpI5HfqAKOcKjX_dPZPz-1" vertex="1">
          <mxGeometry x="441" y="191" width="40" height="40" as="geometry" />
        </mxCell>
        <mxCell id="HIZQCUx6aUcxExQgt6VD-35" value="" style="sketch=0;pointerEvents=1;shadow=0;dashed=0;html=1;strokeColor=none;fillColor=#DF8C42;labelPosition=center;verticalLabelPosition=bottom;verticalAlign=top;align=center;outlineConnect=0;shape=mxgraph.veeam2.microsoft_teams;labelBackgroundColor=#000000;fontSize=16;fontColor=#FFFFFF;flipV=0;" parent="VpI5HfqAKOcKjX_dPZPz-1" vertex="1">
          <mxGeometry x="500.5" y="191" width="40" height="40" as="geometry" />
        </mxCell>
        <mxCell id="HIZQCUx6aUcxExQgt6VD-36" value="&lt;span style=&quot;background-color: rgb(0 , 0 , 0)&quot;&gt;&lt;font style=&quot;font-size: 24px&quot;&gt;&lt;b&gt;資訊中心&lt;br&gt;&lt;/b&gt;&lt;/font&gt;&lt;/span&gt;" style="text;html=1;resizable=0;autosize=1;align=center;verticalAlign=middle;points=[];fillColor=none;strokeColor=none;rounded=0;labelBackgroundColor=#000000;fontSize=16;fontColor=#FFFFFF;" parent="VpI5HfqAKOcKjX_dPZPz-1" vertex="1">
          <mxGeometry x="388" y="80" width="110" height="30" as="geometry" />
        </mxCell>
        <mxCell id="HIZQCUx6aUcxExQgt6VD-37" value="&lt;span style=&quot;background-color: rgb(0 , 0 , 0)&quot;&gt;&lt;font style=&quot;font-size: 24px&quot;&gt;&lt;b&gt;備援中心&lt;br&gt;&lt;/b&gt;&lt;/font&gt;&lt;/span&gt;" style="text;html=1;resizable=0;autosize=1;align=center;verticalAlign=middle;points=[];fillColor=none;strokeColor=none;rounded=0;labelBackgroundColor=#000000;fontSize=16;fontColor=#FFFFFF;" parent="VpI5HfqAKOcKjX_dPZPz-1" vertex="1">
          <mxGeometry x="630" y="80" width="110" height="30" as="geometry" />
        </mxCell>
        <mxCell id="HIZQCUx6aUcxExQgt6VD-9" value="" style="endArrow=none;dashed=1;html=1;rounded=0;strokeColor=#FF0000;strokeWidth=4;" parent="VpI5HfqAKOcKjX_dPZPz-1" edge="1">
          <mxGeometry width="50" height="50" relative="1" as="geometry">
            <mxPoint x="562" y="762" as="sourcePoint" />
            <mxPoint x="562" y="62" as="targetPoint" />
          </mxGeometry>
        </mxCell>
        <mxCell id="bQuvBztGsPJA3CvL8pwP-0" value="EMC Unity Storage" style="sketch=0;shadow=0;dashed=0;html=1;labelPosition=center;verticalLabelPosition=bottom;verticalAlign=top;align=center;outlineConnect=0;shape=mxgraph.veeam.3d.physical_storage;" parent="VpI5HfqAKOcKjX_dPZPz-1" vertex="1">
          <mxGeometry x="698" y="600" width="70" height="50" as="geometry" />
        </mxCell>
        <mxCell id="HIZQCUx6aUcxExQgt6VD-5" value="" style="rounded=1;whiteSpace=wrap;html=1;" parent="VpI5HfqAKOcKjX_dPZPz-1" vertex="1">
          <mxGeometry x="300" y="350" width="520" height="110" as="geometry" />
        </mxCell>
        <mxCell id="VpI5HfqAKOcKjX_dPZPz-2" value="VMFS created on Vplex Distrubed Raid Volume" style="shadow=0;dashed=0;html=1;labelPosition=center;verticalLabelPosition=bottom;verticalAlign=top;align=center;outlineConnect=0;shape=mxgraph.veeam.3d.datastore;aspect=fixed;" parent="VpI5HfqAKOcKjX_dPZPz-1" vertex="1">
          <mxGeometry x="535" y="362" width="50" height="68.16" as="geometry" />
        </mxCell>
        <mxCell id="Y1qZWMzOsRfK0Y3PAqcP-0" value="" style="sketch=0;shadow=0;dashed=0;html=1;labelPosition=center;verticalLabelPosition=bottom;verticalAlign=top;align=center;outlineConnect=0;shape=mxgraph.veeam.3d.vmware_host;labelBackgroundColor=#000000;fontSize=16;fontColor=#FFFFFF;" parent="VpI5HfqAKOcKjX_dPZPz-1" vertex="1">
          <mxGeometry x="737" y="253" width="83" height="84" as="geometry" />
        </mxCell>
      </root>
    </mxGraphModel>
  </diagram>
  <diagram id="njZSZpKFPAmTpP_u605T" name="local-rpo=0">
    <mxGraphModel dx="2942" dy="1122" grid="1" gridSize="10" guides="1" tooltips="1" connect="1" arrows="1" fold="1" page="1" pageScale="1" pageWidth="1169" pageHeight="827" math="0" shadow="0">
      <root>
        <mxCell id="UE_b0t7WZoLxQnkfMr6e-0" />
        <mxCell id="UE_b0t7WZoLxQnkfMr6e-1" parent="UE_b0t7WZoLxQnkfMr6e-0" />
        <mxCell id="j6OhWF1iKuszMOyhAtDx-0" value="&lt;font style=&quot;font-size: 16px&quot; color=&quot;#FFFFFF&quot;&gt;&lt;span style=&quot;background-color: rgb(255 , 0 , 0)&quot;&gt;&amp;nbsp; ( vPLEX Local )&amp;nbsp;&amp;nbsp; &lt;br&gt;&lt;/span&gt;&lt;/font&gt;" style="rounded=1;whiteSpace=wrap;html=1;" vertex="1" parent="UE_b0t7WZoLxQnkfMr6e-1">
          <mxGeometry x="100" y="464" width="520" height="110" as="geometry" />
        </mxCell>
        <mxCell id="j6OhWF1iKuszMOyhAtDx-1" value="&lt;font style=&quot;font-size: 12px&quot;&gt;EMC vPLEX&lt;/font&gt;" style="shadow=0;dashed=0;html=1;labelPosition=center;verticalLabelPosition=bottom;verticalAlign=top;align=center;outlineConnect=0;shape=mxgraph.veeam.3d.switch;fontSize=15;" vertex="1" parent="UE_b0t7WZoLxQnkfMr6e-1">
          <mxGeometry x="140" y="490" width="70" height="50" as="geometry" />
        </mxCell>
        <mxCell id="j6OhWF1iKuszMOyhAtDx-2" value="&lt;font style=&quot;font-size: 16px&quot;&gt;&lt;span style=&quot;background-color: rgb(0 , 0 , 0)&quot;&gt;&lt;font style=&quot;font-size: 16px&quot; color=&quot;#FFFFFF&quot;&gt;&amp;nbsp; ( SAN Storage Pool )&amp;nbsp; &lt;/font&gt;&lt;/span&gt;&lt;/font&gt;" style="rounded=1;whiteSpace=wrap;html=1;" vertex="1" parent="UE_b0t7WZoLxQnkfMr6e-1">
          <mxGeometry x="100" y="574" width="520" height="110" as="geometry" />
        </mxCell>
        <mxCell id="j6OhWF1iKuszMOyhAtDx-3" value="EMC Unity Storage" style="sketch=0;shadow=0;dashed=0;html=1;labelPosition=center;verticalLabelPosition=bottom;verticalAlign=top;align=center;outlineConnect=0;shape=mxgraph.veeam.3d.physical_storage;" vertex="1" parent="UE_b0t7WZoLxQnkfMr6e-1">
          <mxGeometry x="140" y="594" width="70" height="50" as="geometry" />
        </mxCell>
        <mxCell id="j6OhWF1iKuszMOyhAtDx-4" value="EMC Unity Storage" style="sketch=0;shadow=0;dashed=0;html=1;labelPosition=center;verticalLabelPosition=bottom;verticalAlign=top;align=center;outlineConnect=0;shape=mxgraph.veeam.3d.physical_storage;" vertex="1" parent="UE_b0t7WZoLxQnkfMr6e-1">
          <mxGeometry x="515" y="594" width="70" height="50" as="geometry" />
        </mxCell>
        <mxCell id="j6OhWF1iKuszMOyhAtDx-5" value="&lt;span style=&quot;font-size: 12px&quot;&gt;EMC vPLEX&lt;/span&gt;" style="shadow=0;dashed=0;html=1;labelPosition=center;verticalLabelPosition=bottom;verticalAlign=top;align=center;outlineConnect=0;shape=mxgraph.veeam.3d.switch;fontSize=15;" vertex="1" parent="UE_b0t7WZoLxQnkfMr6e-1">
          <mxGeometry x="515" y="490" width="70" height="50" as="geometry" />
        </mxCell>
        <mxCell id="j6OhWF1iKuszMOyhAtDx-8" value="" style="rounded=1;whiteSpace=wrap;html=1;" vertex="1" parent="UE_b0t7WZoLxQnkfMr6e-1">
          <mxGeometry x="100" y="244" width="520" height="110" as="geometry" />
        </mxCell>
        <mxCell id="j6OhWF1iKuszMOyhAtDx-9" value="" style="sketch=0;shadow=0;dashed=0;html=1;labelPosition=center;verticalLabelPosition=bottom;verticalAlign=top;align=center;outlineConnect=0;shape=mxgraph.veeam.3d.vmware_host;labelBackgroundColor=#000000;fontSize=16;fontColor=#FFFFFF;" vertex="1" parent="UE_b0t7WZoLxQnkfMr6e-1">
          <mxGeometry x="111.5" y="257" width="83" height="84" as="geometry" />
        </mxCell>
        <mxCell id="j6OhWF1iKuszMOyhAtDx-10" value="" style="sketch=0;shadow=0;dashed=0;html=1;labelPosition=center;verticalLabelPosition=bottom;verticalAlign=top;align=center;outlineConnect=0;shape=mxgraph.veeam.3d.vmware_host;labelBackgroundColor=#000000;fontSize=16;fontColor=#FFFFFF;" vertex="1" parent="UE_b0t7WZoLxQnkfMr6e-1">
          <mxGeometry x="193.5" y="257" width="83" height="84" as="geometry" />
        </mxCell>
        <mxCell id="j6OhWF1iKuszMOyhAtDx-11" value="" style="sketch=0;shadow=0;dashed=0;html=1;labelPosition=center;verticalLabelPosition=bottom;verticalAlign=top;align=center;outlineConnect=0;shape=mxgraph.veeam.3d.vmware_host;labelBackgroundColor=#000000;fontSize=16;fontColor=#FFFFFF;" vertex="1" parent="UE_b0t7WZoLxQnkfMr6e-1">
          <mxGeometry x="276.5" y="257" width="83" height="84" as="geometry" />
        </mxCell>
        <mxCell id="j6OhWF1iKuszMOyhAtDx-12" value="" style="sketch=0;shadow=0;dashed=0;html=1;labelPosition=center;verticalLabelPosition=bottom;verticalAlign=top;align=center;outlineConnect=0;shape=mxgraph.veeam.3d.vmware_host;labelBackgroundColor=#000000;fontSize=16;fontColor=#FFFFFF;" vertex="1" parent="UE_b0t7WZoLxQnkfMr6e-1">
          <mxGeometry x="359.5" y="257" width="83" height="84" as="geometry" />
        </mxCell>
        <mxCell id="j6OhWF1iKuszMOyhAtDx-13" value="" style="sketch=0;shadow=0;dashed=0;html=1;labelPosition=center;verticalLabelPosition=bottom;verticalAlign=top;align=center;outlineConnect=0;shape=mxgraph.veeam.3d.vmware_host;labelBackgroundColor=#000000;fontSize=16;fontColor=#FFFFFF;" vertex="1" parent="UE_b0t7WZoLxQnkfMr6e-1">
          <mxGeometry x="442.5" y="257" width="83" height="84" as="geometry" />
        </mxCell>
        <mxCell id="j6OhWF1iKuszMOyhAtDx-14" value="" style="rounded=1;whiteSpace=wrap;html=1;" vertex="1" parent="UE_b0t7WZoLxQnkfMr6e-1">
          <mxGeometry x="100" y="134" width="520" height="110" as="geometry" />
        </mxCell>
        <mxCell id="j6OhWF1iKuszMOyhAtDx-15" value="" style="sketch=0;pointerEvents=1;shadow=0;dashed=0;html=1;strokeColor=none;fillColor=#DF8C42;labelPosition=center;verticalLabelPosition=bottom;verticalAlign=top;align=center;outlineConnect=0;shape=mxgraph.veeam2.microsoft_sql;labelBackgroundColor=#000000;fontSize=16;fontColor=#FFFFFF;flipV=0;" vertex="1" parent="UE_b0t7WZoLxQnkfMr6e-1">
          <mxGeometry x="133.5" y="169" width="40" height="40" as="geometry" />
        </mxCell>
        <mxCell id="j6OhWF1iKuszMOyhAtDx-16" value="" style="sketch=0;pointerEvents=1;shadow=0;dashed=0;html=1;strokeColor=none;fillColor=#DF8C42;labelPosition=center;verticalLabelPosition=bottom;verticalAlign=top;align=center;outlineConnect=0;shape=mxgraph.veeam2.microsoft_outlook;labelBackgroundColor=#000000;fontSize=16;fontColor=#FFFFFF;flipV=0;" vertex="1" parent="UE_b0t7WZoLxQnkfMr6e-1">
          <mxGeometry x="193.5" y="169" width="40" height="40" as="geometry" />
        </mxCell>
        <mxCell id="j6OhWF1iKuszMOyhAtDx-17" value="" style="sketch=0;pointerEvents=1;shadow=0;dashed=0;html=1;strokeColor=none;fillColor=#DF8C42;labelPosition=center;verticalLabelPosition=bottom;verticalAlign=top;align=center;outlineConnect=0;shape=mxgraph.veeam2.application;labelBackgroundColor=#000000;fontSize=16;fontColor=#FFFFFF;flipV=0;" vertex="1" parent="UE_b0t7WZoLxQnkfMr6e-1">
          <mxGeometry x="253.5" y="169" width="40" height="40" as="geometry" />
        </mxCell>
        <mxCell id="j6OhWF1iKuszMOyhAtDx-18" value="" style="sketch=0;pointerEvents=1;shadow=0;dashed=0;html=1;strokeColor=none;fillColor=#DF8C42;labelPosition=center;verticalLabelPosition=bottom;verticalAlign=top;align=center;outlineConnect=0;shape=mxgraph.veeam2.microsoft_active_directory;labelBackgroundColor=#000000;fontSize=16;fontColor=#FFFFFF;flipV=0;" vertex="1" parent="UE_b0t7WZoLxQnkfMr6e-1">
          <mxGeometry x="313" y="169" width="40" height="40" as="geometry" />
        </mxCell>
        <mxCell id="j6OhWF1iKuszMOyhAtDx-19" value="" style="sketch=0;pointerEvents=1;shadow=0;dashed=0;html=1;strokeColor=none;fillColor=#DF8C42;labelPosition=center;verticalLabelPosition=bottom;verticalAlign=top;align=center;outlineConnect=0;shape=mxgraph.veeam2.microsoft_scom;labelBackgroundColor=#000000;fontSize=16;fontColor=#FFFFFF;flipV=0;" vertex="1" parent="UE_b0t7WZoLxQnkfMr6e-1">
          <mxGeometry x="373.5" y="169" width="40" height="40" as="geometry" />
        </mxCell>
        <mxCell id="j6OhWF1iKuszMOyhAtDx-20" value="" style="sketch=0;pointerEvents=1;shadow=0;dashed=0;html=1;strokeColor=none;fillColor=#DF8C42;labelPosition=center;verticalLabelPosition=bottom;verticalAlign=top;align=center;outlineConnect=0;shape=mxgraph.veeam2.microsoft_office;labelBackgroundColor=#000000;fontSize=16;fontColor=#FFFFFF;flipV=0;" vertex="1" parent="UE_b0t7WZoLxQnkfMr6e-1">
          <mxGeometry x="433.5" y="169" width="40" height="40" as="geometry" />
        </mxCell>
        <mxCell id="j6OhWF1iKuszMOyhAtDx-21" value="" style="sketch=0;pointerEvents=1;shadow=0;dashed=0;html=1;strokeColor=none;fillColor=#DF8C42;labelPosition=center;verticalLabelPosition=bottom;verticalAlign=top;align=center;outlineConnect=0;shape=mxgraph.veeam2.microsoft_onedrive;labelBackgroundColor=#000000;fontSize=16;fontColor=#FFFFFF;flipV=0;" vertex="1" parent="UE_b0t7WZoLxQnkfMr6e-1">
          <mxGeometry x="493.5" y="169" width="40" height="40" as="geometry" />
        </mxCell>
        <mxCell id="j6OhWF1iKuszMOyhAtDx-22" value="" style="sketch=0;pointerEvents=1;shadow=0;dashed=0;html=1;strokeColor=none;fillColor=#DF8C42;labelPosition=center;verticalLabelPosition=bottom;verticalAlign=top;align=center;outlineConnect=0;shape=mxgraph.veeam2.microsoft_teams;labelBackgroundColor=#000000;fontSize=16;fontColor=#FFFFFF;flipV=0;" vertex="1" parent="UE_b0t7WZoLxQnkfMr6e-1">
          <mxGeometry x="553" y="169" width="40" height="40" as="geometry" />
        </mxCell>
        <mxCell id="j6OhWF1iKuszMOyhAtDx-23" value="&lt;span style=&quot;background-color: rgb(0 , 0 , 0)&quot;&gt;&lt;font style=&quot;font-size: 24px&quot;&gt;&lt;b&gt;資訊中心&lt;br&gt;&lt;/b&gt;&lt;/font&gt;&lt;/span&gt;" style="text;html=1;resizable=0;autosize=1;align=center;verticalAlign=middle;points=[];fillColor=none;strokeColor=none;rounded=0;labelBackgroundColor=#000000;fontSize=16;fontColor=#FFFFFF;" vertex="1" parent="UE_b0t7WZoLxQnkfMr6e-1">
          <mxGeometry x="305" y="84" width="110" height="30" as="geometry" />
        </mxCell>
        <mxCell id="j6OhWF1iKuszMOyhAtDx-24" value="&lt;span style=&quot;background-color: rgb(0 , 0 , 0)&quot;&gt;&lt;font style=&quot;font-size: 24px&quot;&gt;&lt;b&gt;備援中心&lt;br&gt;&lt;/b&gt;&lt;/font&gt;&lt;/span&gt;" style="text;html=1;resizable=0;autosize=1;align=center;verticalAlign=middle;points=[];fillColor=none;strokeColor=none;rounded=0;labelBackgroundColor=#000000;fontSize=16;fontColor=#FFFFFF;" vertex="1" parent="UE_b0t7WZoLxQnkfMr6e-1">
          <mxGeometry x="840" y="84" width="110" height="30" as="geometry" />
        </mxCell>
        <mxCell id="j6OhWF1iKuszMOyhAtDx-25" value="" style="endArrow=none;dashed=1;html=1;rounded=0;strokeColor=#FF0000;strokeWidth=4;" edge="1" parent="UE_b0t7WZoLxQnkfMr6e-1">
          <mxGeometry width="50" height="50" relative="1" as="geometry">
            <mxPoint x="660" y="764" as="sourcePoint" />
            <mxPoint x="660" y="64" as="targetPoint" />
          </mxGeometry>
        </mxCell>
        <mxCell id="j6OhWF1iKuszMOyhAtDx-27" value="" style="rounded=1;whiteSpace=wrap;html=1;" vertex="1" parent="UE_b0t7WZoLxQnkfMr6e-1">
          <mxGeometry x="100" y="354" width="520" height="110" as="geometry" />
        </mxCell>
        <mxCell id="j6OhWF1iKuszMOyhAtDx-28" value="VMFS ccreated on Vplex Distrubed Raid Volume" style="shadow=0;dashed=0;html=1;labelPosition=center;verticalLabelPosition=bottom;verticalAlign=top;align=center;outlineConnect=0;shape=mxgraph.veeam.3d.datastore;aspect=fixed;" vertex="1" parent="UE_b0t7WZoLxQnkfMr6e-1">
          <mxGeometry x="343" y="364" width="50" height="68.16" as="geometry" />
        </mxCell>
        <mxCell id="RJeImOQRGq4Q7RLdlX5b-0" value="" style="sketch=0;shadow=0;dashed=0;html=1;labelPosition=center;verticalLabelPosition=bottom;verticalAlign=top;align=center;outlineConnect=0;shape=mxgraph.veeam.3d.vmware_host;labelBackgroundColor=#000000;fontSize=16;fontColor=#FFFFFF;" vertex="1" parent="UE_b0t7WZoLxQnkfMr6e-1">
          <mxGeometry x="525.5" y="257" width="83" height="84" as="geometry" />
        </mxCell>
      </root>
    </mxGraphModel>
  </diagram>
  <diagram id="-PEFBigU6c81RPPbbTYY" name="Page-3">
    <mxGraphModel dx="2942" dy="1122" grid="1" gridSize="10" guides="1" tooltips="1" connect="1" arrows="1" fold="1" page="1" pageScale="1" pageWidth="1169" pageHeight="827" math="0" shadow="0">
      <root>
        <mxCell id="iAP7C5z16xHCbL8eVtAN-0" />
        <mxCell id="iAP7C5z16xHCbL8eVtAN-1" parent="iAP7C5z16xHCbL8eVtAN-0" />
        <mxCell id="EZyXMwLqOtLo8gDWft1J-3" value="" style="sketch=0;shadow=0;dashed=0;html=1;labelPosition=center;verticalLabelPosition=bottom;verticalAlign=top;align=center;outlineConnect=0;shape=mxgraph.veeam.3d.physical_storage;" vertex="1" parent="iAP7C5z16xHCbL8eVtAN-1">
          <mxGeometry x="160" y="490" width="108" height="60" as="geometry" />
        </mxCell>
        <mxCell id="EZyXMwLqOtLo8gDWft1J-2" value="" style="sketch=0;shadow=0;dashed=0;html=1;labelPosition=center;verticalLabelPosition=bottom;verticalAlign=top;align=center;outlineConnect=0;shape=mxgraph.veeam.3d.switch;" vertex="1" parent="iAP7C5z16xHCbL8eVtAN-1">
          <mxGeometry x="160" y="450" width="110" height="58" as="geometry" />
        </mxCell>
        <mxCell id="EZyXMwLqOtLo8gDWft1J-1" value="" style="sketch=0;shadow=0;dashed=0;html=1;labelPosition=center;verticalLabelPosition=bottom;verticalAlign=top;align=center;outlineConnect=0;shape=mxgraph.veeam.3d.vmware_host;" vertex="1" parent="iAP7C5z16xHCbL8eVtAN-1">
          <mxGeometry x="160" y="374" width="110" height="98" as="geometry" />
        </mxCell>
      </root>
    </mxGraphModel>
  </diagram>
  <diagram id="qsBmEmYEuFIF0AWk5wxK" name="Page-4">
    <mxGraphModel dx="1962" dy="717" grid="1" gridSize="10" guides="1" tooltips="1" connect="1" arrows="1" fold="1" page="1" pageScale="1" pageWidth="1169" pageHeight="827" math="0" shadow="0">
      <root>
        <mxCell id="xmYRlpEbs0L17trqqf33-0" />
        <mxCell id="xmYRlpEbs0L17trqqf33-1" parent="xmYRlpEbs0L17trqqf33-0" />
        <mxCell id="xmYRlpEbs0L17trqqf33-51" value="" style="verticalLabelPosition=bottom;verticalAlign=top;html=1;shape=mxgraph.basic.diag_snip_rect;dx=6;fontSize=14;strokeColor=#000000;" vertex="1" parent="xmYRlpEbs0L17trqqf33-1">
          <mxGeometry x="159" y="488" width="550" height="170" as="geometry" />
        </mxCell>
        <mxCell id="xmYRlpEbs0L17trqqf33-52" value="網路磁碟機" style="text;html=1;strokeColor=none;fillColor=none;align=center;verticalAlign=middle;whiteSpace=wrap;rounded=0;" vertex="1" parent="xmYRlpEbs0L17trqqf33-1">
          <mxGeometry x="270" y="668" width="90" height="30" as="geometry" />
        </mxCell>
        <mxCell id="xmYRlpEbs0L17trqqf33-53" value="&lt;font style=&quot;font-size: 14px&quot;&gt;1&lt;/font&gt;" style="ellipse;whiteSpace=wrap;html=1;aspect=fixed;strokeWidth=2;fontFamily=Tahoma;spacingBottom=4;spacingRight=2;strokeColor=#000000;" vertex="1" parent="xmYRlpEbs0L17trqqf33-1">
          <mxGeometry x="260" y="673" width="20" height="20" as="geometry" />
        </mxCell>
        <mxCell id="xmYRlpEbs0L17trqqf33-54" value="2" style="ellipse;whiteSpace=wrap;html=1;aspect=fixed;strokeWidth=2;fontFamily=Tahoma;spacingBottom=4;spacingRight=2;strokeColor=#FF0000;fontSize=14;" vertex="1" parent="xmYRlpEbs0L17trqqf33-1">
          <mxGeometry x="535.25" y="673" width="20" height="20" as="geometry" />
        </mxCell>
        <mxCell id="xmYRlpEbs0L17trqqf33-55" value="&lt;div&gt;資料複寫&lt;/div&gt;" style="text;html=1;strokeColor=none;fillColor=none;align=center;verticalAlign=middle;whiteSpace=wrap;rounded=0;" vertex="1" parent="xmYRlpEbs0L17trqqf33-1">
          <mxGeometry x="545.25" y="668" width="90" height="30" as="geometry" />
        </mxCell>
        <mxCell id="xmYRlpEbs0L17trqqf33-49" value="" style="verticalLabelPosition=bottom;verticalAlign=top;html=1;shape=mxgraph.basic.diag_snip_rect;dx=6;fontSize=14;strokeColor=#000000;" vertex="1" parent="xmYRlpEbs0L17trqqf33-1">
          <mxGeometry x="159" y="170" width="550" height="170" as="geometry" />
        </mxCell>
        <mxCell id="xmYRlpEbs0L17trqqf33-11" value="" style="edgeStyle=orthogonalEdgeStyle;rounded=0;orthogonalLoop=1;jettySize=auto;html=1;entryX=0;entryY=0.5;entryDx=0;entryDy=0;strokeColor=#FF0000;" edge="1" parent="xmYRlpEbs0L17trqqf33-1" source="xmYRlpEbs0L17trqqf33-2" target="xmYRlpEbs0L17trqqf33-12">
          <mxGeometry relative="1" as="geometry" />
        </mxCell>
        <mxCell id="xmYRlpEbs0L17trqqf33-2" value="&lt;div&gt;薪酬組專用NAS&lt;/div&gt;&lt;div&gt;(金控大樓機房)&lt;br&gt;&lt;/div&gt;" style="aspect=fixed;perimeter=ellipsePerimeter;html=1;align=center;shadow=0;dashed=0;spacingTop=3;image;image=img/lib/active_directory/generic_server.svg;" vertex="1" parent="xmYRlpEbs0L17trqqf33-1">
          <mxGeometry x="420" y="530" width="28.000000000000004" height="50" as="geometry" />
        </mxCell>
        <mxCell id="xmYRlpEbs0L17trqqf33-7" value="" style="edgeStyle=orthogonalEdgeStyle;rounded=0;orthogonalLoop=1;jettySize=auto;html=1;entryX=0;entryY=0.5;entryDx=0;entryDy=0;" edge="1" parent="xmYRlpEbs0L17trqqf33-1" source="xmYRlpEbs0L17trqqf33-3" target="xmYRlpEbs0L17trqqf33-2">
          <mxGeometry relative="1" as="geometry" />
        </mxCell>
        <mxCell id="xmYRlpEbs0L17trqqf33-3" value="薪酬組同仁電腦&lt;br&gt;(金控大樓)" style="aspect=fixed;perimeter=ellipsePerimeter;html=1;align=center;shadow=0;dashed=0;spacingTop=3;image;image=img/lib/active_directory/laptop_client.svg;" vertex="1" parent="xmYRlpEbs0L17trqqf33-1">
          <mxGeometry x="190" y="530" width="45" height="50" as="geometry" />
        </mxCell>
        <mxCell id="xmYRlpEbs0L17trqqf33-4" value="(防火牆)" style="aspect=fixed;perimeter=ellipsePerimeter;html=1;align=center;shadow=0;dashed=0;spacingTop=3;image;image=img/lib/active_directory/firewall.svg;" vertex="1" parent="xmYRlpEbs0L17trqqf33-1">
          <mxGeometry x="310" y="530" width="30.5" height="50" as="geometry" />
        </mxCell>
        <mxCell id="xmYRlpEbs0L17trqqf33-12" value="&lt;div&gt;薪酬組備援NAS&lt;br&gt;(板橋異地機房)&lt;br&gt;&lt;/div&gt;" style="aspect=fixed;perimeter=ellipsePerimeter;html=1;align=center;shadow=0;dashed=0;spacingTop=3;image;image=img/lib/active_directory/generic_server.svg;" vertex="1" parent="xmYRlpEbs0L17trqqf33-1">
          <mxGeometry x="640" y="530" width="28.000000000000004" height="50" as="geometry" />
        </mxCell>
        <mxCell id="xmYRlpEbs0L17trqqf33-5" value="(防火牆)" style="aspect=fixed;perimeter=ellipsePerimeter;html=1;align=center;shadow=0;dashed=0;spacingTop=3;image;image=img/lib/active_directory/firewall.svg;" vertex="1" parent="xmYRlpEbs0L17trqqf33-1">
          <mxGeometry x="530" y="530" width="30.5" height="50" as="geometry" />
        </mxCell>
        <mxCell id="xmYRlpEbs0L17trqqf33-19" value="&lt;font style=&quot;font-size: 14px&quot;&gt;1&lt;/font&gt;" style="ellipse;whiteSpace=wrap;html=1;aspect=fixed;strokeWidth=2;fontFamily=Tahoma;spacingBottom=4;spacingRight=2;strokeColor=#000000;" vertex="1" parent="xmYRlpEbs0L17trqqf33-1">
          <mxGeometry x="260" y="520" width="20" height="20" as="geometry" />
        </mxCell>
        <mxCell id="xmYRlpEbs0L17trqqf33-20" value="2" style="ellipse;whiteSpace=wrap;html=1;aspect=fixed;strokeWidth=2;fontFamily=Tahoma;spacingBottom=4;spacingRight=2;strokeColor=#FF0000;fontSize=14;" vertex="1" parent="xmYRlpEbs0L17trqqf33-1">
          <mxGeometry x="480" y="520" width="20" height="20" as="geometry" />
        </mxCell>
        <mxCell id="xmYRlpEbs0L17trqqf33-27" value="" style="edgeStyle=orthogonalEdgeStyle;rounded=0;orthogonalLoop=1;jettySize=auto;html=1;entryX=0;entryY=0.5;entryDx=0;entryDy=0;strokeColor=#FF0000;" edge="1" parent="xmYRlpEbs0L17trqqf33-1" source="xmYRlpEbs0L17trqqf33-28" target="xmYRlpEbs0L17trqqf33-32">
          <mxGeometry relative="1" as="geometry" />
        </mxCell>
        <mxCell id="xmYRlpEbs0L17trqqf33-28" value="&lt;div&gt;薪酬組專用NAS&lt;/div&gt;&lt;div&gt;(金控大樓機房)&lt;br&gt;&lt;/div&gt;" style="aspect=fixed;perimeter=ellipsePerimeter;html=1;align=center;shadow=0;dashed=0;spacingTop=3;image;image=img/lib/active_directory/generic_server.svg;" vertex="1" parent="xmYRlpEbs0L17trqqf33-1">
          <mxGeometry x="420" y="220" width="28.000000000000004" height="50" as="geometry" />
        </mxCell>
        <mxCell id="xmYRlpEbs0L17trqqf33-29" value="" style="edgeStyle=orthogonalEdgeStyle;rounded=0;orthogonalLoop=1;jettySize=auto;html=1;entryX=0;entryY=0.5;entryDx=0;entryDy=0;" edge="1" parent="xmYRlpEbs0L17trqqf33-1" source="xmYRlpEbs0L17trqqf33-30" target="xmYRlpEbs0L17trqqf33-28">
          <mxGeometry relative="1" as="geometry" />
        </mxCell>
        <mxCell id="xmYRlpEbs0L17trqqf33-30" value="薪酬組同仁電腦&lt;br&gt;(金控大樓)" style="aspect=fixed;perimeter=ellipsePerimeter;html=1;align=center;shadow=0;dashed=0;spacingTop=3;image;image=img/lib/active_directory/laptop_client.svg;" vertex="1" parent="xmYRlpEbs0L17trqqf33-1">
          <mxGeometry x="190" y="220" width="45" height="50" as="geometry" />
        </mxCell>
        <mxCell id="xmYRlpEbs0L17trqqf33-31" value="(防火牆)" style="aspect=fixed;perimeter=ellipsePerimeter;html=1;align=center;shadow=0;dashed=0;spacingTop=3;image;image=img/lib/active_directory/firewall.svg;" vertex="1" parent="xmYRlpEbs0L17trqqf33-1">
          <mxGeometry x="310" y="220" width="30.5" height="50" as="geometry" />
        </mxCell>
        <mxCell id="xmYRlpEbs0L17trqqf33-32" value="&lt;div&gt;薪酬組備援NAS&lt;br&gt;(金控大樓機房)&lt;br&gt;&lt;/div&gt;" style="aspect=fixed;perimeter=ellipsePerimeter;html=1;align=center;shadow=0;dashed=0;spacingTop=3;image;image=img/lib/active_directory/generic_server.svg;" vertex="1" parent="xmYRlpEbs0L17trqqf33-1">
          <mxGeometry x="640" y="220" width="28.000000000000004" height="50" as="geometry" />
        </mxCell>
        <mxCell id="xmYRlpEbs0L17trqqf33-35" value="&lt;font style=&quot;font-size: 14px&quot;&gt;1&lt;/font&gt;" style="ellipse;whiteSpace=wrap;html=1;aspect=fixed;strokeWidth=2;fontFamily=Tahoma;spacingBottom=4;spacingRight=2;strokeColor=#000000;" vertex="1" parent="xmYRlpEbs0L17trqqf33-1">
          <mxGeometry x="260" y="210" width="20" height="20" as="geometry" />
        </mxCell>
        <mxCell id="xmYRlpEbs0L17trqqf33-36" value="2" style="ellipse;whiteSpace=wrap;html=1;aspect=fixed;strokeWidth=2;fontFamily=Tahoma;spacingBottom=4;spacingRight=2;strokeColor=#FF0000;fontSize=14;" vertex="1" parent="xmYRlpEbs0L17trqqf33-1">
          <mxGeometry x="535.25" y="210" width="20" height="20" as="geometry" />
        </mxCell>
        <mxCell id="xmYRlpEbs0L17trqqf33-45" value="網路磁碟機" style="text;html=1;strokeColor=none;fillColor=none;align=center;verticalAlign=middle;whiteSpace=wrap;rounded=0;" vertex="1" parent="xmYRlpEbs0L17trqqf33-1">
          <mxGeometry x="270" y="350" width="90" height="30" as="geometry" />
        </mxCell>
        <mxCell id="xmYRlpEbs0L17trqqf33-46" value="&lt;font style=&quot;font-size: 14px&quot;&gt;1&lt;/font&gt;" style="ellipse;whiteSpace=wrap;html=1;aspect=fixed;strokeWidth=2;fontFamily=Tahoma;spacingBottom=4;spacingRight=2;strokeColor=#000000;" vertex="1" parent="xmYRlpEbs0L17trqqf33-1">
          <mxGeometry x="260" y="355" width="20" height="20" as="geometry" />
        </mxCell>
        <mxCell id="xmYRlpEbs0L17trqqf33-47" value="2" style="ellipse;whiteSpace=wrap;html=1;aspect=fixed;strokeWidth=2;fontFamily=Tahoma;spacingBottom=4;spacingRight=2;strokeColor=#FF0000;fontSize=14;" vertex="1" parent="xmYRlpEbs0L17trqqf33-1">
          <mxGeometry x="535.25" y="355" width="20" height="20" as="geometry" />
        </mxCell>
        <mxCell id="xmYRlpEbs0L17trqqf33-48" value="&lt;div&gt;資料複寫&lt;/div&gt;" style="text;html=1;strokeColor=none;fillColor=none;align=center;verticalAlign=middle;whiteSpace=wrap;rounded=0;" vertex="1" parent="xmYRlpEbs0L17trqqf33-1">
          <mxGeometry x="545.25" y="350" width="90" height="30" as="geometry" />
        </mxCell>
        <mxCell id="xmYRlpEbs0L17trqqf33-57" value="After" style="rounded=0;whiteSpace=wrap;html=1;fontSize=14;strokeColor=#000000;fontColor=#FFFFFF;fillColor=#000000;" vertex="1" parent="xmYRlpEbs0L17trqqf33-1">
          <mxGeometry x="618" y="468" width="91" height="20" as="geometry" />
        </mxCell>
        <mxCell id="xmYRlpEbs0L17trqqf33-58" value="Before" style="rounded=0;whiteSpace=wrap;html=1;fontSize=14;strokeColor=#000000;fontColor=#FFFFFF;fillColor=#000000;" vertex="1" parent="xmYRlpEbs0L17trqqf33-1">
          <mxGeometry x="618" y="150" width="91" height="20" as="geometry" />
        </mxCell>
      </root>
    </mxGraphModel>
  </diagram>
</mxfile>
